<svg width="60" height="36" fill="none" xmlns="http://www.w3.org/2000/svg"><path d="M44.5 21.35H41v10.82s0 1.5 1.75 1.5 1.75-1.5 1.75-1.5V21.35z" fill="#A4966F"/><path d="M44.5 21.35H41v5.82h3.5v-5.82z" fill="url(#housing_bottom_5_paint0_linear)"/><path d="M21.5 21.35H18v11.32l1.75 2 1.75-2V21.35z" fill="#A4966F"/><path d="M20.7 21.35v6.882s0 1.117-1 1.117-1-1.117-1-1.117v-6.883" stroke="#000" stroke-opacity=".42" stroke-width=".4"/><path d="M21.5 21.35H18v5.82h3.5v-5.82z" fill="url(#housing_bottom_5_paint1_linear)"/><path d="M2 .368c0-.184.15-.333.333-.333h55.042c.184 0 .333.149.333.333 0 .184.15.333.333.333H59.4a.6.6 0 01.6.6v2.768a.6.6 0 01-.6.6h-1.467a.6.6 0 00-.6.6v5.33a.6.6 0 01-.027.18l-3.174 10.147a.6.6 0 01-.573.421h-1.626a.6.6 0 00-.6.6v5.32c0 .05-.006.098-.018.146l-1.201 4.802a.6.6 0 01-.582.454h-2.397a.6.6 0 01-.582-.454l-1.202-4.802a.602.602 0 01-.018-.146v-5.32a.6.6 0 00-.6-.6h-7.466a.6.6 0 00-.6.6v5.252a.6.6 0 01-.064.269l-1.77 3.538a.6.6 0 01-.537.331h-8.642a.6.6 0 01-.499-.267l-2.387-3.578a.6.6 0 01-.101-.333v-5.212a.6.6 0 00-.6-.6h-6.8a.6.6 0 00-.6.6v5.32c0 .05-.006.098-.018.146l-1.202 4.802a.6.6 0 01-.582.454h-2.397a.6.6 0 01-.582-.454l-1.201-4.802a.6.6 0 01-.018-.146v-5.32a.6.6 0 00-.6-.6H6.44a.6.6 0 01-.573-.42l-3.173-10.15a.6.6 0 01-.027-.179V5.27a.6.6 0 00-.6-.6H.6a.6.6 0 01-.6-.6V1.301A.6.6 0 01.6.7h1.067C1.851.7 2 .55 2 .368z" fill="#fff" opacity=".5"/><path d="M26.002 5.216a.6.6 0 01.485-.247h6.816a.6.6 0 01.51.284L35.5 7.969s.777.545 1.17 1v6.7H39v-6.7s1-2.3 4-2.3c2.999 0 4.162 1.688 4.434 2.172a.553.553 0 01.066.274v12.224H36.67v-.28a.6.6 0 00-.6-.6H23.314a.65.65 0 00-.65.65v.23H15V8.97s0-2.3 2.5-2.3 2.578 2.3 2.578 2.3L20 15.67h2.5v-6.7c1-.3 1.5-1 1.5-1l2.002-2.753z" fill="url(#housing_bottom_5_paint2_linear)" fill-opacity=".6"/><path d="M26.044 8.17H33.5L33.172 0h-6.59l-.538 8.17z" fill="url(#housing_bottom_5_paint3_linear)"/><path d="M2 .368c0-.184.15-.333.333-.333h55.042c.184 0 .333.149.333.333 0 .184.15.333.333.333H59.4a.6.6 0 01.6.6v2.768a.6.6 0 01-.6.6h-1.467a.6.6 0 00-.6.6v5.33a.6.6 0 01-.027.18l-3.174 10.147a.6.6 0 01-.573.421h-1.626a.6.6 0 00-.6.6v5.32c0 .05-.006.098-.018.146l-1.201 4.802a.6.6 0 01-.582.454h-2.397a.6.6 0 01-.582-.454l-1.202-4.802a.602.602 0 01-.018-.146v-5.32a.6.6 0 00-.6-.6h-7.466a.6.6 0 00-.6.6v5.252a.6.6 0 01-.064.269l-1.77 3.538a.6.6 0 01-.537.331h-8.642a.6.6 0 01-.499-.267l-2.387-3.578a.6.6 0 01-.101-.333v-5.212a.6.6 0 00-.6-.6h-6.8a.6.6 0 00-.6.6v5.32c0 .05-.006.098-.018.146l-1.202 4.802a.6.6 0 01-.582.454h-2.397a.6.6 0 01-.582-.454l-1.201-4.802a.6.6 0 01-.018-.146v-5.32a.6.6 0 00-.6-.6H6.44a.6.6 0 01-.573-.42l-3.173-10.15a.6.6 0 01-.027-.179V5.27a.6.6 0 00-.6-.6H.6a.6.6 0 01-.6-.6V1.301A.6.6 0 01.6.7h1.067C1.851.7 2 .55 2 .368z" class="switch-housing-bottom" fill="#5C5C5C"/><path opacity=".8" d="M49.4 21.349V4.669H58s-.67 0-.67.89v5.13L54 21.349h-4.6z" fill="url(#housing_bottom_5_paint4_linear)"/><path opacity=".8" d="M10.6 21.35V4.67H2s.67 0 .67.89v5.13L6 21.35h4.6z" fill="url(#housing_bottom_5_paint5_linear)"/><path d="M22.67 27.34s4.096.83 6.83.83 7.17-.83 7.17-.83l-1.834 3.667a.6.6 0 01-.537.332h-8.648a.6.6 0 01-.5-.268L22.67 27.34z" fill="url(#housing_bottom_5_paint6_linear)"/><mask id="a" maskUnits="userSpaceOnUse" x="15" y="15" width="29" height="14"><ellipse cx="29.5" cy="21.769" rx="14" ry="6.5" fill="#C4C4C4"/></mask><g mask="url(#a)"><path d="M22.67 21.07a.6.6 0 01.6-.6h12.8a.6.6 0 01.6.6v6.27l-1.834 3.668a.6.6 0 01-.537.331h-8.647a.6.6 0 01-.5-.267l-2.482-3.733v-6.27z" fill="url(#housing_bottom_5_paint7_linear)"/></g><path d="M8.67 21.95a.6.6 0 01.6-.6h4.8a.6.6 0 01.6.6v5.22l-1.228 5.041a.6.6 0 01-.583.458h-2.387a.6.6 0 01-.583-.459L8.67 27.17v-5.22z" fill="url(#housing_bottom_5_paint8_linear)"/><path d="M45.33 21.95a.6.6 0 01.6-.6h4.8a.6.6 0 01.6.6v5.22l-1.228 5.041a.6.6 0 01-.583.458h-2.387a.6.6 0 01-.583-.459l-1.219-5.04v-5.22z" fill="url(#housing_bottom_5_paint9_linear)"/><path d="M11.5 12.17H20v3.5h2.5v-3.5h14v3.5H39v-3.5h9.5v8h-37v-8z" fill="url(#housing_bottom_5_paint10_linear)"/><path d="M10.6 4.369H20v4.8h-9.4v-4.8z" fill="url(#housing_bottom_5_paint11_linear)"/><path d="M39 4.369h10.4v4.8H39v-4.8z" fill="url(#housing_bottom_5_paint12_linear)"/><path opacity=".2" d="M20 .04v15.63h2.5v-7.5H26V.04" stroke="#000" stroke-width=".3"/><path opacity=".2" d="M22.5 7.57a.6.6 0 01.6-.6H26v1.2h-3.5v-.6z" fill="#000"/><path opacity=".2" d="M39 .04v15.63h-2.5v-7.5H33V.04" stroke="#000" stroke-width=".3"/><path opacity=".2" d="M36.5 7.57a.6.6 0 00-.6-.6H33v1.2h3.5v-.6z" fill="#000"/><path d="M0 1.3A.6.6 0 01.6.7h2.9v3.97H.6a.6.6 0 01-.6-.6V1.3z" fill="url(#housing_bottom_5_paint13_linear)"/><path d="M60 1.3a.6.6 0 00-.6-.6h-2.9v3.97h2.9a.6.6 0 00.6-.6V1.3z" fill="url(#housing_bottom_5_paint14_linear)"/><path d="M2 .44c0-.222.18-.4.4-.4h54.91c.22 0 .4.178.4.4v.73H2V.44z" fill="url(#housing_bottom_5_paint15_linear)"/><defs><linearGradient id="housing_bottom_5_paint0_linear" x1="42.75" y1="21.349" x2="42.75" y2="26.169" gradientUnits="userSpaceOnUse"><stop stop-opacity=".3"/><stop offset="1" stop-opacity="0"/></linearGradient><linearGradient id="housing_bottom_5_paint1_linear" x1="19.75" y1="21.349" x2="19.75" y2="26.169" gradientUnits="userSpaceOnUse"><stop stop-opacity=".3"/><stop offset="1" stop-opacity="0"/></linearGradient><linearGradient id="housing_bottom_5_paint2_linear" x1="30.02" y1="4.969" x2="30.02" y2="21.369" gradientUnits="userSpaceOnUse"><stop offset=".214" stop-color="#FAECC5"/><stop offset=".375" stop-color="#D9BD6F"/><stop offset=".536" stop-color="#A4966F"/></linearGradient><linearGradient id="housing_bottom_5_paint3_linear" x1="30" y1="7.669" x2="30" y2=".169" gradientUnits="userSpaceOnUse"><stop offset=".164" stop-color="#FEF9EE"/><stop offset="1" stop-color="#68592E"/></linearGradient><linearGradient id="housing_bottom_5_paint4_linear" x1="53" y1="3.169" x2="53" y2="11.169" gradientUnits="userSpaceOnUse"><stop stop-opacity=".6"/><stop offset="1" stop-color="#0A0A0A" stop-opacity=".15"/></linearGradient><linearGradient id="housing_bottom_5_paint5_linear" x1="7" y1="3.169" x2="7" y2="11.169" gradientUnits="userSpaceOnUse"><stop stop-opacity=".6"/><stop offset="1" stop-color="#0A0A0A" stop-opacity=".15"/></linearGradient><linearGradient id="housing_bottom_5_paint6_linear" x1="22.5" y1="26.169" x2="36.5" y2="26.169" gradientUnits="userSpaceOnUse"><stop stop-opacity=".25"/><stop offset=".518" stop-opacity="0"/><stop offset="1" stop-opacity=".35"/></linearGradient><linearGradient id="housing_bottom_5_paint7_linear" x1="22.5" y1="26.169" x2="36.5" y2="26.169" gradientUnits="userSpaceOnUse"><stop stop-opacity=".3"/><stop offset=".518" stop-opacity=".1"/><stop offset="1" stop-opacity=".3"/></linearGradient><linearGradient id="housing_bottom_5_paint8_linear" x1="8.427" y1="26.913" x2="14.427" y2="26.913" gradientUnits="userSpaceOnUse"><stop stop-opacity=".5"/><stop offset=".518" stop-opacity=".15"/><stop offset="1" stop-opacity=".5"/></linearGradient><linearGradient id="housing_bottom_5_paint9_linear" x1="45.087" y1="26.913" x2="51.087" y2="26.913" gradientUnits="userSpaceOnUse"><stop stop-opacity=".5"/><stop offset=".518" stop-opacity=".15"/><stop offset="1" stop-opacity=".5"/></linearGradient><linearGradient id="housing_bottom_5_paint10_linear" x1="30" y1="10.169" x2="30" y2="20.169" gradientUnits="userSpaceOnUse"><stop stop-opacity=".1"/><stop offset="1" stop-opacity="0"/></linearGradient><linearGradient id="housing_bottom_5_paint11_linear" x1="16" y1="4.169" x2="16" y2="8.669" gradientUnits="userSpaceOnUse"><stop stop-opacity=".3"/><stop offset="1" stop-opacity="0"/></linearGradient><linearGradient id="housing_bottom_5_paint12_linear" x1="45.4" y1="4.169" x2="45.4" y2="8.669" gradientUnits="userSpaceOnUse"><stop stop-opacity=".3"/><stop offset="1" stop-opacity="0"/></linearGradient><linearGradient id="housing_bottom_5_paint13_linear" x1="0" y1="2.669" x2="3.5" y2="2.669" gradientUnits="userSpaceOnUse"><stop stop-opacity=".2"/><stop offset="1" stop-opacity="0"/></linearGradient><linearGradient id="housing_bottom_5_paint14_linear" x1="60" y1="2.669" x2="56.5" y2="2.669" gradientUnits="userSpaceOnUse"><stop stop-opacity=".2"/><stop offset="1" stop-opacity="0"/></linearGradient><linearGradient id="housing_bottom_5_paint15_linear" x1="29.855" y1=".039" x2="29.855" y2="1.169" gradientUnits="userSpaceOnUse"><stop stop-opacity=".26"/><stop offset="1" stop-opacity=".11"/></linearGradient></defs></svg>