<svg width="58" height="20" fill="none" xmlns="http://www.w3.org/2000/svg"><path d="M24.898 4.257a.6.6 0 01.598-.643h6.166a.6.6 0 01.599.644l-.39 5.356s4.198-2.898 6.827-2c1.5.512 2.388 1.137 3.195 2.5 1.777 3 0 9.87 0 9.87H15.266s-2.096-5.87.404-9.87c1.022-1.635 2.345-2.267 4.259-2.5 2.215-.27 5.351 2 5.351 2l-.382-5.357z" fill="url(#housing_top_standard_paint0_linear)"/><path d="M31.691 3.614h-6.223a.6.6 0 00-.6.616l.412 15.754h6.59l.421-15.754a.6.6 0 00-.6-.616z" fill="url(#housing_top_standard_paint1_linear)"/><path d="M13.17 14.614h6.6a.4.4 0 01.4.4v4.97h-7v-5.37z" fill="url(#housing_top_standard_paint2_linear)"/><path d="M44.17 14.614h-6.6a.4.4 0 00-.4.4v4.97h7v-5.37z" fill="url(#housing_top_standard_paint3_linear)"/><path d="M15.47.114h26.4v19.87h-26.4V.114z" fill="url(#housing_top_standard_paint4_linear)"/><path d="M15.47.114v19.87h-4.8V.114h4.8z" fill="url(#housing_top_standard_paint5_linear)" fill-opacity=".4"/><path d="M42.17.114v19.87h4.8V.114h-4.8z" fill="url(#housing_top_standard_paint6_linear)" fill-opacity=".4"/><path d="M9.032.745A1.2 1.2 0 0110.142 0H47.2a1.2 1.2 0 011.11.745l5.563 13.586c.08.194.27.321.479.321.196 0 .375.11.463.286l2.45 4.897a.1.1 0 01-.089.145H.17a.1.1 0 01-.088-.146l2.605-4.958a.418.418 0 01.37-.224c.17 0 .323-.103.388-.26L9.032.745z" class="switch-housing-top" fill="#5C5C5C"/><path d="M46.67.114h-36v4.15h36V.114z" fill="url(#housing_top_standard_paint7_linear)"/><g opacity=".8"><path d="M9.27.666l-5.7 13.948h6.1a1 1 0 001-1V.114s-1.067 0-1.4.552z" fill="url(#housing_top_standard_paint8_linear)"/><path d="M9.27.666l-5.7 13.948h6.1a1 1 0 001-1V.114s-1.067 0-1.4.552z" fill="url(#housing_top_standard_paint9_linear)"/></g><path opacity=".8" d="M3.17 19.984l1-5.17h-1.4L.08 19.837a.1.1 0 00.088.147H3.17z" fill="url(#housing_top_standard_paint10_linear)"/><path opacity=".8" d="M54.17 19.984l-1-5.17h1.4l2.691 5.023a.1.1 0 01-.088.147H54.17z" fill="url(#housing_top_standard_paint11_linear)"/><g opacity=".8"><path d="M48.07.666l5.7 13.948h-6.1a1 1 0 01-1-1V.114s1.068 0 1.4.552z" fill="url(#housing_top_standard_paint12_linear)"/><path d="M48.07.666l5.7 13.948h-6.1a1 1 0 01-1-1V.114s1.068 0 1.4.552z" fill="url(#housing_top_standard_paint13_linear)"/></g><defs><linearGradient id="housing_top_standard_paint0_linear" x1="28.691" y1="3.614" x2="28.691" y2="20.014" gradientUnits="userSpaceOnUse"><stop offset=".214" stop-color="#FAECC5"/><stop offset=".375" stop-color="#D9BD6F"/><stop offset=".536" stop-color="#A4966F"/></linearGradient><linearGradient id="housing_top_standard_paint1_linear" x1="28.58" y1="3.614" x2="28.58" y2="9.614" gradientUnits="userSpaceOnUse"><stop offset=".167" stop-color="#FFE28F"/><stop offset=".422" stop-color="#A4966F"/><stop offset="1" stop-color="#68592E"/></linearGradient><linearGradient id="housing_top_standard_paint2_linear" x1="13.17" y1="20.114" x2="19.67" y2="20.114" gradientUnits="userSpaceOnUse"><stop offset=".313" stop-color="#fff" stop-opacity=".7"/><stop offset="1" stop-color="#D7D7D7" stop-opacity=".42"/></linearGradient><linearGradient id="housing_top_standard_paint3_linear" x1="44.17" y1="20.114" x2="37.67" y2="20.114" gradientUnits="userSpaceOnUse"><stop offset=".313" stop-color="#fff" stop-opacity=".7"/><stop offset="1" stop-color="#D7D7D7" stop-opacity=".42"/></linearGradient><linearGradient id="housing_top_standard_paint4_linear" x1="28.67" y1="2.761" x2="28.67" y2="20.115" gradientUnits="userSpaceOnUse"><stop stop-color="#fff" stop-opacity=".61"/><stop offset=".128" stop-color="#fff" stop-opacity=".1"/><stop offset="1" stop-color="#fff" stop-opacity=".06"/></linearGradient><linearGradient id="housing_top_standard_paint5_linear" x1="15.509" y1="9.614" x2="11.17" y2="9.614" gradientUnits="userSpaceOnUse"><stop stop-color="#fff"/><stop offset=".182" stop-color="#fff" stop-opacity=".6"/><stop offset="1" stop-opacity="0"/></linearGradient><linearGradient id="housing_top_standard_paint6_linear" x1="42.132" y1="9.614" x2="46.47" y2="9.614" gradientUnits="userSpaceOnUse"><stop stop-color="#fff"/><stop offset=".182" stop-color="#fff" stop-opacity=".6"/><stop offset="1" stop-opacity="0"/></linearGradient><linearGradient id="housing_top_standard_paint7_linear" x1="28.729" y1=".266" x2="28.729" y2="4" gradientUnits="userSpaceOnUse"><stop offset=".308" stop-color="#0A0A0A" stop-opacity=".25"/><stop offset="1" stop-color="#0A0A0A" stop-opacity="0"/></linearGradient><linearGradient id="housing_top_standard_paint8_linear" x1="10.671" y1="8.614" x2="6.171" y2="8.614" gradientUnits="userSpaceOnUse"><stop stop-color="#0A0A0A" stop-opacity=".25"/><stop offset="1" stop-color="#0A0A0A" stop-opacity=".05"/></linearGradient><linearGradient id="housing_top_standard_paint9_linear" x1="6.355" y1="12.114" x2="6.355" y2="16.114" gradientUnits="userSpaceOnUse"><stop stop-opacity="0"/><stop offset="1" stop-opacity=".14"/></linearGradient><linearGradient id="housing_top_standard_paint10_linear" x1=".67" y1="18.114" x2="2.17" y2="18.614" gradientUnits="userSpaceOnUse"><stop stop-color="#0A0A0A" stop-opacity=".25"/><stop offset="1" stop-color="#0A0A0A" stop-opacity="0"/></linearGradient><linearGradient id="housing_top_standard_paint11_linear" x1="56.671" y1="18.114" x2="55.171" y2="18.614" gradientUnits="userSpaceOnUse"><stop stop-color="#0A0A0A" stop-opacity=".25"/><stop offset="1" stop-color="#0A0A0A" stop-opacity="0"/></linearGradient><linearGradient id="housing_top_standard_paint12_linear" x1="46.67" y1="8.614" x2="51.17" y2="8.614" gradientUnits="userSpaceOnUse"><stop stop-color="#0A0A0A" stop-opacity=".25"/><stop offset="1" stop-color="#0A0A0A" stop-opacity=".05"/></linearGradient><linearGradient id="housing_top_standard_paint13_linear" x1="50.987" y1="12.114" x2="50.987" y2="16.114" gradientUnits="userSpaceOnUse"><stop stop-opacity="0"/><stop offset="1" stop-opacity=".14"/></linearGradient></defs></svg>